<svg width="31.000000" height="31.000000" viewBox="0 0 31 31" fill="none" xmlns="http://www.w3.org/2000/svg" xmlns:xlink="http://www.w3.org/1999/xlink">
	<desc>
			Created with Pixso.
	</desc>
	<defs/>
	<rect id="Shape" rx="0.000000" width="30.000000" height="30.000000" transform="translate(0.500000 0.500000)" fill="#FFFFFF" fill-opacity="0"/>
	<path id="vector" d="M18.58 7.51C19.79 7.75 20.9 8.34 21.77 9.21C22.64 10.08 23.23 11.19 23.46 12.39M18.58 2.58C21.09 2.85 23.43 3.98 25.21 5.76C27 7.54 28.13 9.87 28.41 12.38M27.17 25.93C27.17 26.28 27.1 26.62 26.97 26.93C26.83 27.25 26.63 27.53 26.37 27.76C26.12 28 25.82 28.17 25.49 28.28C25.17 28.39 24.82 28.43 24.48 28.4C20.67 27.99 17.01 26.69 13.8 24.61C10.82 22.71 8.28 20.19 6.39 17.21C4.29 13.98 2.99 10.32 2.59 6.5C2.56 6.16 2.6 5.82 2.71 5.49C2.82 5.17 2.99 4.87 3.23 4.62C3.46 4.36 3.74 4.16 4.05 4.02C4.37 3.88 4.71 3.81 5.05 3.81L8.76 3.81C9.36 3.8 9.94 4.02 10.4 4.41C10.85 4.8 11.15 5.34 11.23 5.94C11.39 7.12 11.68 8.28 12.1 9.4C12.26 9.85 12.3 10.33 12.2 10.79C12.1 11.25 11.87 11.67 11.54 12.01L9.97 13.58C11.73 16.67 14.3 19.23 17.39 20.98L18.96 19.41C19.3 19.08 19.72 18.85 20.19 18.76C20.65 18.66 21.13 18.69 21.57 18.86C22.69 19.28 23.86 19.57 25.05 19.72C25.65 19.81 26.19 20.11 26.59 20.57C26.98 21.03 27.19 21.62 27.17 22.23L27.17 25.93Z" stroke="#FFFFFF" stroke-opacity="1.000000" stroke-width="1.500000" stroke-linejoin="round" stroke-linecap="round"/>
</svg>
