<svg width="16" height="16" viewBox="0 0 16 16" fill="none" xmlns="http://www.w3.org/2000/svg">
<path d="M16 9.8088V16H12.5699V10.2237C12.5699 8.77337 12.0747 7.7829 10.8328 7.7829C9.88502 7.7829 9.32199 8.44972 9.07335 9.0954C8.98305 9.32615 8.95978 9.64658 8.95978 9.97022V15.9997H5.52945C5.52945 15.9997 5.57549 6.21663 5.52945 5.20395H8.96003V6.73381C8.95312 6.74586 8.9434 6.75764 8.93726 6.76915H8.96003V6.73381C9.41587 5.9998 10.2288 4.95044 12.0514 4.95044C14.3081 4.95044 16 6.49342 16 9.8088ZM1.94104 0C0.767666 0 0 0.806023 0 1.86502C0 2.90152 0.745411 3.73083 1.89602 3.73083H1.91827C3.11466 3.73083 3.85854 2.90152 3.85854 1.86502C3.83577 0.806023 3.11466 0 1.94104 0ZM0.203875 16H3.63292V5.20395H0.203875V16Z" fill="#060F42"/>
</svg>
